<?xml version="1.0" encoding="UTF-8" standalone="no"?>
<svg
   version="1.0"
   width="1024pt"
   height="1024pt"
   viewBox="0 0 1024 1024"
   preserveAspectRatio="xMidYMid"
   id="svg4"
   sodipodi:docname="icon.svg"
   inkscape:version="1.3.2 (091e20ef0f, 2023-11-25, custom)"
   xmlns:inkscape="http://www.inkscape.org/namespaces/inkscape"
   xmlns:sodipodi="http://sodipodi.sourceforge.net/DTD/sodipodi-0.dtd"
   xmlns="http://www.w3.org/2000/svg"
   xmlns:svg="http://www.w3.org/2000/svg">
  <defs
     id="defs4">
    <linearGradient
       id="swatch1"
       inkscape:swatch="solid">
      <stop
         style="stop-color:#000000;stop-opacity:1;"
         offset="0"
         id="stop1" />
    </linearGradient>
  </defs>
  <sodipodi:namedview
     id="namedview4"
     pagecolor="#ffffff"
     bordercolor="#000000"
     borderopacity="0.25"
     inkscape:showpageshadow="2"
     inkscape:pageopacity="0.0"
     inkscape:pagecheckerboard="0"
     inkscape:deskcolor="#d1d1d1"
     inkscape:document-units="pt"
     inkscape:zoom="0.50520833"
     inkscape:cx="215.75258"
     inkscape:cy="683.87629"
     inkscape:window-width="2560"
     inkscape:window-height="1371"
     inkscape:window-x="0"
     inkscape:window-y="0"
     inkscape:window-maximized="1"
     inkscape:current-layer="svg4" />
  <path
     d="m 259.1569,266.19959 c 0,1.1 0,485.6 0,491 0,1.7 10,1.8 195.3,1.8 213.7,0 204.5,0.2 221.2,-5.7 20,-7.2 35.6,-16.6 49.3,-29.7 29.1,-27.7 43,-66.8 39.3,-109.5 -3.4,-38.6 -23.3,-73.8 -53.3,-94.6 -5.1,-3.5 -8.7,-6.7 -8.7,-7.7 -0.1,-1 1.2,-2.4 2.9,-3.3 5.9,-3.1 22.6,-17.5 28.6,-24.7 14,-16.7 22.2,-33.5 27.9,-56.8 2.6,-10.5 2.9,-13 2.8,-30 0,-15.2 -0.4,-20.3 -2.1,-28.5 -4.3,-19.5 -10.8,-34.9 -21.4,-50.2 -17.7,-25.5 -46.1,-44.1 -78.8,-51.4 -8.2,-1.79999 -15.9,-1.89999 -205.7,-1.89999 -157.2,0 -197.3,0.3 -197.3,1.19999 z m 405.7,34.5 c 17.5,6.1 29.4,13.5 40.5,25.2 12.5,13 19.8,26.2 24.5,44 2.2,8.3 2.6,11.8 2.7,26.1 0,14.8 -0.2,17.5 -2.6,26.6 -5,18.9 -13.5,34 -26,46 -17.4,16.8 -38.5,26.5 -58.3,26.8 l -10,0.1 -0.7,-5 c -0.4,-2.8 -1.4,-10.9 -2.3,-18 -5.3,-42 -21.8,-81.5 -45.8,-109.6 -14.7,-17.2 -42.3,-34.4 -60.9,-37.9 -3,-0.6 -47.2,-1 -110.4,-1 h -105.4 v 187.5 187.5 l 2.3,0.5 c 1.2,0.3 49.9,0.4 108.2,0.3 l 106,-0.3 7,-2.6 c 28.1,-10.5 50.9,-29.1 68.1,-55.7 6.1,-9.4 14.3,-26.9 18.8,-40.1 7.5,-21.8 11.2,-39.5 14.2,-67 l 0.6,-6.4 10.2,0.6 c 31.1,1.6 61.5,22.1 76.4,51.2 8.3,16.3 10.6,26.8 10.6,48.5 0.1,15 -0.2,17.4 -2.7,26.5 -9.6,34.2 -33.2,58.5 -67.2,69.2 l -9,2.8 -181.2,0.3 -181.3,0.2 -0.1,-30.7 c 0,-17 0,-56.2 0,-87.3 0,-31.1 0,-114 0.1,-184.3 v -127.7 l 182.3,0.2 182.2,0.3 z m -143.6,56.3 c 9.4,1.8 25,10.7 34.4,19.7 20.9,20 35.7,49.2 42.9,84.4 3,14.8 5.1,31.2 4.3,33.4 -0.6,1.3 -5.2,1.5 -36.7,1.5 h -36.1 l 0.3,15.7 0.3,15.8 36.3,0.3 36.2,0.2 v 3.8 c -0.1,10.8 -7.1,43.9 -12.5,59.2 -12.3,34.1 -32.6,59.4 -57.3,71.3 -7.1,3.4 -9.7,4.1 -18,4.9 -5.3,0.4 -46.4,0.7 -91.2,0.6 l -81.5,-0.3 -0.3,-154.5 c -0.1,-85 0,-155.1 0.3,-155.8 0.6,-1.6 170.1,-1.8 178.6,-0.2 z"
     id="path2"
     style="stroke:none;stroke-width:0.1;fill-opacity:1" />
</svg>
